<?xml version="1.0" standalone="no"?><!DOCTYPE svg PUBLIC "-//W3C//DTD SVG 1.1//EN" "http://www.w3.org/Graphics/SVG/1.1/DTD/svg11.dtd"><svg t="1616855186471" class="icon" viewBox="0 0 1024 1024" version="1.1" xmlns="http://www.w3.org/2000/svg" p-id="2096" xmlns:xlink="http://www.w3.org/1999/xlink" width="200" height="200"><defs><style type="text/css"></style></defs><path d="M749.943467 512.546133H715.776c-15.803733 0-68.369067-2.628267-68.369067-52.565333 0-15.803733-10.5472-26.3168-26.282666-26.3168-15.803733 0-26.3168 10.513067-26.3168 26.282667v10.513066c0 42.0864-63.146667 44.714667-76.288 44.714667H484.352c-13.175467 0-76.288-2.628267-76.288-44.714667V462.574933c0-15.7696-10.513067-26.282667-26.282667-26.282666s-26.282667 10.513067-26.282666 26.282666c0 39.458133-34.2016 52.599467-68.4032 52.599467h-31.573334c-36.795733 0-68.369067-31.5392-68.369066-68.369067v-65.7408h631.1936v63.112534a67.925333 67.925333 0 0 1-68.4032 68.369066zM250.299733 223.266133H742.058667l55.227733 105.198934H205.585067l44.714666-105.198934z m618.018134 128.853334l-86.801067-168.277334A27.648 27.648 0 0 0 757.8624 170.666667H231.867733a25.258667 25.258667 0 0 0-23.6544 18.432l-68.4032 170.9056c-5.256533 5.290667-2.628267 18.432-2.628266 21.060266v65.7408c0 65.7408 55.227733 120.968533 121.002666 120.968534h34.167467c39.458133 0 70.997333-13.141333 92.0576-36.795734 21.026133 23.6544 57.856 36.795733 102.570667 36.795734h34.167466c44.714667 0 81.544533-13.141333 102.570667-36.795734 21.060267 21.026133 52.599467 34.167467 92.0576 34.167467h34.167467c65.774933 0 121.002667-55.227733 121.002666-120.968533V375.808c0-2.628267 0-18.432-2.628266-23.688533z m-76.288 247.227733c-15.7696 0-26.282667 10.513067-26.282667 26.282667v160.426666a16.964267 16.964267 0 0 1-15.803733 15.7696H255.522133a16.964267 16.964267 0 0 1-15.7696-15.7696v-160.426666c0-15.7696-10.513067-26.282667-26.282666-26.282667s-26.282667 10.513067-26.282667 26.282667v160.426666c0 36.829867 31.5392 68.369067 68.334933 68.369067h494.421334c36.864 0 68.4032-31.5392 68.4032-68.369067v-160.426666c0-15.7696-10.513067-26.282667-26.282667-26.282667z" p-id="2097" fill="#d81e06"></path></svg>